<?xml version="1.0" encoding="UTF-8"?>
<svg width="400" height="400" viewBox="0 0 400 400" xmlns="http://www.w3.org/2000/svg">
  <!-- Paper background -->
  <rect width="100%" height="100%" fill="#f5f2e9"/>
  
  <!-- Subtle paper texture pattern -->
  <filter id="noise" x="0%" y="0%" width="100%" height="100%">
    <feTurbulence type="fractalNoise" baseFrequency="0.7" numOctaves="3" stitchTiles="stitch" result="noise"/>
    <feColorMatrix type="matrix" values="0 0 0 0 0, 0 0 0 0 0, 0 0 0 0 0, 0 0 0 0.03 0" in="noise" result="coloredNoise"/>
  </filter>
  
  <!-- Apply noise filter -->
  <rect width="100%" height="100%" filter="url(#noise)" opacity="0.4"/>
  
  <!-- Horizontal fiber lines -->
  <g stroke="#d7ccc8" stroke-width="0.5" opacity="0.15">
    <line x1="0" y1="20" x2="400" y2="20"/>
    <line x1="0" y1="60" x2="400" y2="60"/>
    <line x1="0" y1="100" x2="400" y2="100"/>
    <line x1="0" y1="140" x2="400" y2="140"/>
    <line x1="0" y1="180" x2="400" y2="180"/>
    <line x1="0" y1="220" x2="400" y2="220"/>
    <line x1="0" y1="260" x2="400" y2="260"/>
    <line x1="0" y1="300" x2="400" y2="300"/>
    <line x1="0" y1="340" x2="400" y2="340"/>
    <line x1="0" y1="380" x2="400" y2="380"/>
  </g>
  
  <!-- Vertical fiber lines -->
  <g stroke="#d7ccc8" stroke-width="0.5" opacity="0.1">
    <line x1="20" y1="0" x2="20" y2="400"/>
    <line x1="60" y1="0" x2="60" y2="400"/>
    <line x1="100" y1="0" x2="100" y2="400"/>
    <line x1="140" y1="0" x2="140" y2="400"/>
    <line x1="180" y1="0" x2="180" y2="400"/>
    <line x1="220" y1="0" x2="220" y2="400"/>
    <line x1="260" y1="0" x2="260" y2="400"/>
    <line x1="300" y1="0" x2="300" y2="400"/>
    <line x1="340" y1="0" x2="340" y2="400"/>
    <line x1="380" y1="0" x2="380" y2="400"/>
  </g>
  
  <!-- Random small speckles -->
  <g fill="#8d6e63" opacity="0.05">
    <circle cx="25" cy="30" r="1"/>
    <circle cx="80" cy="120" r="0.8"/>
    <circle cx="150" cy="75" r="1.2"/>
    <circle cx="200" cy="200" r="0.7"/>
    <circle cx="260" cy="90" r="1"/>
    <circle cx="330" cy="180" r="0.9"/>
    <circle cx="100" cy="300" r="1.1"/>
    <circle cx="375" cy="250" r="0.8"/>
    <circle cx="40" cy="350" r="1"/>
    <circle cx="290" cy="330" r="0.7"/>
    <circle cx="190" cy="370" r="1.2"/>
  </g>
  
  <!-- Very subtle folded paper effect -->
  <rect x="0" y="0" width="400" height="400" fill="url(#lightGradient)" opacity="0.1"/>
  <defs>
    <linearGradient id="lightGradient" x1="0%" y1="0%" x2="100%" y2="100%">
      <stop offset="0%" stop-color="#ffffff" stop-opacity="0.7"/>
      <stop offset="50%" stop-color="#ffffff" stop-opacity="0"/>
      <stop offset="100%" stop-color="#000000" stop-opacity="0.05"/>
    </linearGradient>
  </defs>
</svg> 